<svg width="786.752" height="110.552" viewBox="0 0 786.752 110.552" xmlns="http://www.w3.org/2000/svg">
	<g id="svgGroup" stroke-linecap="round" fill-rule="evenodd" font-size="9pt" stroke="#000" stroke-width="0.25mm" fill="none" style="stroke:#000;stroke-width:0.25mm;fill:none">
		<path d="M 108.752 42.9 L 77.102 42.9 A 11.82 11.82 0 0 0 73.044 33.778 A 16.426 16.426 0 0 0 71.402 32.475 A 21.885 21.885 0 0 0 62.2 28.85 A 29.13 29.13 0 0 0 57.602 28.5 A 35.139 35.139 0 0 0 50.846 29.108 Q 46.904 29.881 43.862 31.638 A 17.899 17.899 0 0 0 39.902 34.725 Q 34.435 40.397 33.949 50.365 A 40.788 40.788 0 0 0 33.902 52.35 L 33.902 61.95 A 34.837 34.837 0 0 0 34.548 68.874 Q 35.871 75.393 39.902 79.575 A 19.064 19.064 0 0 0 48.169 84.522 Q 51.235 85.47 54.946 85.715 A 40.397 40.397 0 0 0 57.602 85.8 A 28.648 28.648 0 0 0 64.23 85.068 A 21.773 21.773 0 0 0 71.402 81.975 A 14.953 14.953 0 0 0 74.529 79.231 A 10.65 10.65 0 0 0 77.102 72.15 L 53.702 72.15 L 53.702 51.15 L 108.752 51.15 L 108.752 108.75 L 91.652 108.75 L 88.352 98.55 A 48.889 48.889 0 0 1 66.87 108.966 A 71.094 71.094 0 0 1 51.452 110.55 A 77.934 77.934 0 0 1 36.708 109.247 Q 28.43 107.65 22.01 104.095 A 38.222 38.222 0 0 1 12.902 97.125 A 42.256 42.256 0 0 1 3.432 81.04 Q 1.235 74.506 0.445 66.539 A 95.273 95.273 0 0 1 0.002 57.15 A 75.158 75.158 0 0 1 1.503 41.634 Q 3.493 32.208 8.122 25.069 A 40.837 40.837 0 0 1 14.627 17.325 A 47.603 47.603 0 0 1 33.659 6.733 Q 40.956 4.542 49.72 3.96 A 98.63 98.63 0 0 1 56.252 3.75 A 84.262 84.262 0 0 1 70.976 4.983 A 66.248 66.248 0 0 1 82.952 8.25 A 47.579 47.579 0 0 1 93.876 14.027 A 39.346 39.346 0 0 1 101.777 21.525 A 31.961 31.961 0 0 1 108.486 38.124 A 41.813 41.813 0 0 1 108.752 42.9 Z" id="0" vector-effect="non-scaling-stroke"/>
		<path d="M 158.102 108.75 L 128.252 108.75 L 128.252 0 L 158.102 0 L 158.102 108.75 Z" id="1" vector-effect="non-scaling-stroke"/>
		<path d="M 208.052 108.75 L 178.202 108.75 L 178.202 29.55 L 208.052 29.55 L 208.052 108.75 Z M 208.052 20.25 L 178.202 20.25 L 178.202 0 L 208.052 0 L 208.052 20.25 Z" id="2" vector-effect="non-scaling-stroke"/>
		<path d="M 263.102 29.55 L 279.902 29.55 L 279.902 49.8 L 263.102 49.8 L 263.102 79.95 Q 263.102 84.769 264.536 87.258 A 6.345 6.345 0 0 0 264.902 87.825 Q 266.267 89.702 269.358 90.156 A 14.809 14.809 0 0 0 271.502 90.3 L 279.902 90.3 L 279.902 107.85 Q 277.455 108.666 274.038 109.273 A 77.128 77.128 0 0 1 270.602 109.8 A 102.879 102.879 0 0 1 266.538 110.257 Q 264.531 110.44 262.753 110.509 A 53.212 53.212 0 0 1 260.702 110.55 Q 247.502 110.55 240.377 105.75 Q 233.948 101.419 233.32 91.591 A 34.383 34.383 0 0 1 233.252 89.4 L 233.252 49.8 L 222.152 49.8 L 222.152 29.55 L 234.452 29.55 L 240.902 5.55 L 263.102 5.55 L 263.102 29.55 Z" id="3" vector-effect="non-scaling-stroke"/>
		<path d="M 378.302 61.5 L 349.352 61.5 Q 349.352 48.023 334.702 48 A 32.044 32.044 0 0 0 334.652 48 A 18.149 18.149 0 0 0 328.481 48.962 Q 320.502 51.841 319.988 63.327 A 36.305 36.305 0 0 0 319.952 64.95 L 319.952 73.5 A 26.732 26.732 0 0 0 320.658 79.943 Q 322.751 88.34 331.043 89.929 A 22.386 22.386 0 0 0 335.252 90.3 A 24.714 24.714 0 0 0 341.026 89.686 Q 350.552 87.389 350.552 76.5 L 378.302 76.5 A 38.877 38.877 0 0 1 377.002 86.867 A 26.718 26.718 0 0 1 366.227 102.15 A 44.125 44.125 0 0 1 351.925 108.547 Q 346.111 110.049 339.302 110.425 A 84.465 84.465 0 0 1 334.652 110.55 A 66.734 66.734 0 0 1 321.451 109.323 Q 313.59 107.736 307.49 104.096 A 36.653 36.653 0 0 1 301.952 100.05 A 33.584 33.584 0 0 1 291.839 83.318 Q 290.326 77.779 290.131 71.139 A 67.767 67.767 0 0 1 290.102 69.15 A 55.886 55.886 0 0 1 291.348 56.963 Q 293.944 45.346 301.952 38.25 A 39.445 39.445 0 0 1 317.605 29.906 Q 325.204 27.75 334.652 27.75 Q 350.248 27.75 361.095 33.075 A 40.373 40.373 0 0 1 366.227 36.075 A 27.046 27.046 0 0 1 377.804 54.915 A 41.643 41.643 0 0 1 378.302 61.5 Z" id="4" vector-effect="non-scaling-stroke"/>
		<path d="M 473.402 57.45 L 473.402 108.75 L 443.552 108.75 L 443.552 61.05 A 16.135 16.135 0 0 0 443.213 57.646 Q 442.713 55.326 441.473 53.577 A 9.842 9.842 0 0 0 440.927 52.875 A 8.551 8.551 0 0 0 435.783 49.995 A 12.718 12.718 0 0 0 433.502 49.8 A 13.942 13.942 0 0 0 429.339 50.394 A 11.225 11.225 0 0 0 424.502 53.4 A 12.273 12.273 0 0 0 421.053 62.086 A 15.859 15.859 0 0 0 421.052 62.25 L 421.052 108.75 L 391.202 108.75 L 391.202 0 L 421.052 0 L 421.052 37.8 Q 425.852 33 432.302 30.375 Q 438.752 27.75 445.802 27.75 A 39.57 39.57 0 0 1 453.753 28.497 Q 458.444 29.46 462.015 31.665 A 20.539 20.539 0 0 1 466.502 35.4 Q 472.288 41.815 473.222 52.977 A 53.672 53.672 0 0 1 473.402 57.45 Z" id="5" vector-effect="non-scaling-stroke"/>
		<path d="M 538.052 108.75 L 493.352 108.75 L 493.352 5.55 L 538.052 5.55 Q 592.202 5.55 592.202 57.15 A 70.605 70.605 0 0 1 589.423 77.883 Q 582.417 100.671 557.756 106.636 A 84.032 84.032 0 0 1 538.052 108.75 Z M 526.502 30.3 L 526.502 84 L 537.452 84 A 27.82 27.82 0 0 0 545.955 82.813 Q 554.998 79.91 557.418 69.907 A 35.216 35.216 0 0 0 558.302 61.65 L 558.302 52.65 A 34.657 34.657 0 0 0 557.322 44.01 Q 554.457 32.916 543.218 30.799 A 31.19 31.19 0 0 0 537.452 30.3 L 526.502 30.3 Z" id="6" vector-effect="non-scaling-stroke"/>
		<path d="M 693.602 69.15 L 693.602 74.25 L 634.202 74.25 A 30.52 30.52 0 0 0 634.557 79.07 Q 635.368 84.125 638.027 87.15 Q 641.852 91.5 650.102 91.5 A 28.475 28.475 0 0 0 654.006 91.251 Q 658.594 90.614 661.127 88.35 A 10.394 10.394 0 0 0 664.59 81.307 A 14.476 14.476 0 0 0 664.652 79.95 L 693.602 79.95 Q 693.602 94.35 682.652 102.45 A 36.085 36.085 0 0 1 672.097 107.694 Q 663.171 110.55 650.702 110.55 A 76.047 76.047 0 0 1 637.298 109.444 Q 624.665 107.179 616.502 100.275 Q 604.352 90 604.352 69.15 A 55.886 55.886 0 0 1 605.598 56.963 Q 608.194 45.346 616.202 38.25 A 39.445 39.445 0 0 1 631.855 29.906 Q 639.454 27.75 648.902 27.75 Q 670.652 27.75 682.127 37.95 A 31.903 31.903 0 0 1 691.246 52.336 Q 693.602 59.634 693.602 69.15 Z M 634.352 60.15 L 663.452 60.15 A 17.37 17.37 0 0 0 662.997 56.059 A 11.922 11.922 0 0 0 659.927 50.4 Q 656.442 46.84 650.243 46.8 A 21.889 21.889 0 0 0 650.102 46.8 A 21.9 21.9 0 0 0 644.089 47.558 Q 637.265 49.508 635.119 56.473 A 21.389 21.389 0 0 0 634.352 60.15 Z" id="7" vector-effect="non-scaling-stroke"/>
		<path d="M 756.452 108.75 L 725.102 108.75 L 695.102 29.55 L 727.202 29.55 L 741.752 78.9 L 742.802 78.9 L 757.352 29.55 L 786.752 29.55 L 756.452 108.75 Z" id="8" vector-effect="non-scaling-stroke"/>
	</g>
</svg>
